mtllib materials.mtl
v 0.687500 0.000000 0.750000
v 0.687500 0.000000 0.937500
v 0.312500 0.000000 0.937500
v 0.312500 0.000000 0.750000
v 0.312500 0.250000 0.937500
v 0.687500 0.250000 0.937500
v 0.687500 0.250000 0.750000
v 0.312500 0.250000 0.750000
v 1.000000 0.000000 0.000000
v 1.000000 0.000000 0.750000
v 0.000000 0.000000 0.750000
v 0.000000 0.000000 0.000000
v 0.000000 1.000000 0.750000
v 1.000000 1.000000 0.750000
v 1.000000 1.000000 0.000000
v 0.000000 1.000000 0.000000
v 0.625000 0.250000 0.750000
v 0.625000 0.250000 0.875000
v 0.375000 0.250000 0.875000
v 0.375000 0.250000 0.750000
v 0.375000 1.000000 0.875000
v 0.625000 1.000000 0.875000
v 0.625000 1.000000 0.750000
v 0.375000 1.000000 0.750000

vt 0.437500 0.500000
vt 0.437500 0.453125
vt 0.343750 0.453125
vt 0.343750 0.500000
vt 0.250000 0.500000
vt 0.250000 0.453125
vt 0.484375 0.500000
vt 0.390625 0.500000
vt 0.390625 0.562500
vt 0.484375 0.562500
vt 0.343750 0.562500
vt 0.250000 0.562500
vt 0.203125 0.500000
vt 0.203125 0.562500
vt 0.687500 0.187500
vt 0.687500 0.000000
vt 0.437500 0.000000
vt 0.437500 0.187500
vt 0.187500 0.187500
vt 0.187500 0.000000
vt 0.875000 0.187500
vt 0.625000 0.187500
vt 0.625000 0.437500
vt 0.875000 0.437500
vt 0.437500 0.437500
vt 0.187500 0.437500
vt 0.000000 0.187500
vt 0.000000 0.437500
vt 0.156250 0.484375
vt 0.156250 0.453125
vt 0.093750 0.453125
vt 0.093750 0.484375
vt 0.031250 0.484375
vt 0.031250 0.453125
vt 0.187500 0.484375
vt 0.125000 0.484375
vt 0.125000 0.671875
vt 0.187500 0.671875
vt 0.093750 0.671875
vt 0.031250 0.671875
vt 0.000000 0.484375
vt 0.000000 0.671875

vn -0.000000 -1.000000 0.000000
vn 0.000000 1.000000 0.000000
vn 0.000000 -0.000000 -1.000000
vn 0.000000 0.000000 1.000000
vn -1.000000 0.000000 -0.000000
vn 1.000000 0.000000 0.000000

o gridner_block
usemtl grinder

g Mesh_0
f 1/1/1 2/2/1 3/3/1 4/4/1
f 5/5/2 6/4/2 7/3/2 8/6/2
f 8/7/3 7/8/3 1/9/3 4/10/3
f 2/11/4 6/4/4 5/5/4 3/12/4
f 3/12/5 5/5/5 8/13/5 4/14/5
f 7/8/6 6/4/6 2/11/6 1/9/6
g Mesh_1
f 9/15/1 10/16/1 11/17/1 12/18/1
f 13/19/2 14/18/2 15/17/2 16/20/2
f 16/21/3 15/22/3 9/23/3 12/24/3
f 10/25/4 14/18/4 13/19/4 11/26/4
f 11/26/5 13/19/5 16/27/5 12/28/5
f 15/22/6 14/18/6 10/25/6 9/23/6
g Mesh_2
f 17/29/1 18/30/1 19/31/1 20/32/1
f 21/33/2 22/32/2 23/31/2 24/34/2
f 24/35/3 23/36/3 17/37/3 20/38/3
f 18/39/4 22/32/4 21/33/4 19/40/4
f 19/40/5 21/33/5 24/41/5 20/42/5
f 23/36/6 22/32/6 18/39/6 17/37/6

