{
  "accessors": [
    {
      "bufferView": 0,
      "componentType": 5126,
      "count": 36,
      "type": "VEC3",
      "max": [
        0.0625,
        0.0625,
        0.0625
      ],
      "min": [
        0.0,
        0.0,
        0.0
      ]
    },
    {
      "bufferView": 1,
      "componentType": 5126,
      "count": 36,
      "type": "VEC2",
      "max": [
        0.875,
        0.375
      ],
      "min": [
        0.0,
        0.0
      ]
    },
    {
      "bufferView": 2,
      "componentType": 5126,
      "count": 24,
      "type": "VEC3",
      "max": [
        0.0625,
        0.0625,
        0.0625
      ],
      "min": [
        0.0,
        0.0,
        0.0
      ]
    },
    {
      "bufferView": 3,
      "componentType": 5126,
      "count": 24,
      "type": "VEC2",
      "max": [
        0.5,
        0.21875
      ],
      "min": [
        0.375,
        0.0
      ]
    },
    {
      "bufferView": 4,
      "componentType": 5126,
      "count": 36,
      "type": "VEC2",
      "max": [
        0.09375,
        0.5
      ],
      "min": [
        0.0,
        0.421875
      ]
    },
    {
      "bufferView": 5,
      "componentType": 5126,
      "count": 36,
      "type": "VEC2",
      "max": [
        0.5,
        0.09375
      ],
      "min": [
        0.4375,
        0.0
      ]
    },
    {
      "bufferView": 6,
      "componentType": 5126,
      "count": 36,
      "type": "VEC2",
      "max": [
        0.34375,
        0.359375
      ],
      "min": [
        0.0,
        0.328125
      ]
    },
    {
      "bufferView": 7,
      "componentType": 5126,
      "count": 36,
      "type": "VEC2",
      "max": [
        0.453125,
        0.1171875
      ],
      "min": [
        0.375,
        0.09375
      ]
    },
    {
      "bufferView": 8,
      "componentType": 5126,
      "count": 36,
      "type": "VEC2",
      "max": [
        0.46875,
        0.1484375
      ],
      "min": [
        0.375,
        0.125
      ]
    },
    {
      "bufferView": 9,
      "componentType": 5126,
      "count": 36,
      "type": "VEC2",
      "max": [
        0.46875,
        0.1171875
      ],
      "min": [
        0.375,
        0.09375
      ]
    },
    {
      "bufferView": 10,
      "componentType": 5126,
      "count": 36,
      "type": "VEC2",
      "max": [
        0.5,
        0.140625
      ],
      "min": [
        0.375,
        0.1171875
      ]
    },
    {
      "bufferView": 11,
      "componentType": 5126,
      "count": 36,
      "type": "VEC2",
      "max": [
        0.46875,
        0.140625
      ],
      "min": [
        0.375,
        0.1171875
      ]
    },
    {
      "bufferView": 12,
      "componentType": 5126,
      "count": 6,
      "type": "VEC3",
      "max": [
        0.0625,
        0.0625,
        0.0
      ],
      "min": [
        0.0,
        0.0,
        0.0
      ]
    },
    {
      "bufferView": 13,
      "componentType": 5126,
      "count": 6,
      "type": "VEC2",
      "max": [
        0.25,
        0.8828125
      ],
      "min": [
        0.0,
        0.765625
      ]
    },
    {
      "bufferView": 14,
      "componentType": 5126,
      "count": 36,
      "type": "VEC2",
      "max": [
        0.5,
        0.4375
      ],
      "min": [
        0.375,
        0.0
      ]
    },
    {
      "bufferView": 15,
      "componentType": 5126,
      "count": 36,
      "type": "VEC2",
      "max": [
        0.5,
        0.5
      ],
      "min": [
        0.375,
        0.375
      ]
    },
    {
      "bufferView": 16,
      "componentType": 5126,
      "count": 36,
      "type": "VEC2",
      "max": [
        0.4375,
        0.09375
      ],
      "min": [
        0.375,
        0.0
      ]
    },
    {
      "bufferView": 17,
      "componentType": 5126,
      "count": 36,
      "type": "VEC2",
      "max": [
        0.375,
        0.375
      ],
      "min": [
        0.0,
        0.0
      ]
    },
    {
      "bufferView": 18,
      "componentType": 5126,
      "count": 36,
      "type": "VEC2",
      "max": [
        0.2109375,
        0.140625
      ],
      "min": [
        0.0,
        0.0
      ]
    },
    {
      "bufferView": 19,
      "componentType": 5126,
      "count": 36,
      "type": "VEC2",
      "max": [
        0.3359375,
        0.546875
      ],
      "min": [
        0.2109375,
        0.375
      ]
    },
    {
      "bufferView": 20,
      "componentType": 5126,
      "count": 36,
      "type": "VEC2",
      "max": [
        0.46875,
        0.140625
      ],
      "min": [
        0.0,
        0.0
      ]
    },
    {
      "bufferView": 21,
      "componentType": 5126,
      "count": 36,
      "type": "VEC2",
      "max": [
        0.2109375,
        0.71875
      ],
      "min": [
        0.0,
        0.5
      ]
    },
    {
      "bufferView": 22,
      "componentType": 5126,
      "count": 36,
      "type": "VEC2",
      "max": [
        0.2109375,
        0.5
      ],
      "min": [
        0.09375,
        0.375
      ]
    },
    {
      "bufferView": 23,
      "componentType": 5126,
      "count": 6,
      "type": "VEC2",
      "max": [
        0.25,
        1.0
      ],
      "min": [
        0.0,
        0.8828125
      ]
    }
  ],
  "asset": {
    "generator": "TO_BE_NAMED glTF v2 Exporter",
    "version": "2.0"
  },
  "buffers": [
    {
      "uri": "big_combustion_chamber.bin",
      "byteLength": 6264
    }
  ],
  "bufferViews": [
    {
      "buffer": 0,
      "byteLength": 432,
      "target": 34962
    },
    {
      "buffer": 0,
      "byteOffset": 432,
      "byteLength": 288,
      "target": 34962
    },
    {
      "buffer": 0,
      "byteOffset": 720,
      "byteLength": 288,
      "target": 34962
    },
    {
      "buffer": 0,
      "byteOffset": 1008,
      "byteLength": 192,
      "target": 34962
    },
    {
      "buffer": 0,
      "byteOffset": 1200,
      "byteLength": 288,
      "target": 34962
    },
    {
      "buffer": 0,
      "byteOffset": 1488,
      "byteLength": 288,
      "target": 34962
    },
    {
      "buffer": 0,
      "byteOffset": 1776,
      "byteLength": 288,
      "target": 34962
    },
    {
      "buffer": 0,
      "byteOffset": 2064,
      "byteLength": 288,
      "target": 34962
    },
    {
      "buffer": 0,
      "byteOffset": 2352,
      "byteLength": 288,
      "target": 34962
    },
    {
      "buffer": 0,
      "byteOffset": 2640,
      "byteLength": 288,
      "target": 34962
    },
    {
      "buffer": 0,
      "byteOffset": 2928,
      "byteLength": 288,
      "target": 34962
    },
    {
      "buffer": 0,
      "byteOffset": 3216,
      "byteLength": 288,
      "target": 34962
    },
    {
      "buffer": 0,
      "byteOffset": 3504,
      "byteLength": 72,
      "target": 34962
    },
    {
      "buffer": 0,
      "byteOffset": 3576,
      "byteLength": 48,
      "target": 34962
    },
    {
      "buffer": 0,
      "byteOffset": 3624,
      "byteLength": 288,
      "target": 34962
    },
    {
      "buffer": 0,
      "byteOffset": 3912,
      "byteLength": 288,
      "target": 34962
    },
    {
      "buffer": 0,
      "byteOffset": 4200,
      "byteLength": 288,
      "target": 34962
    },
    {
      "buffer": 0,
      "byteOffset": 4488,
      "byteLength": 288,
      "target": 34962
    },
    {
      "buffer": 0,
      "byteOffset": 4776,
      "byteLength": 288,
      "target": 34962
    },
    {
      "buffer": 0,
      "byteOffset": 5064,
      "byteLength": 288,
      "target": 34962
    },
    {
      "buffer": 0,
      "byteOffset": 5352,
      "byteLength": 288,
      "target": 34962
    },
    {
      "buffer": 0,
      "byteOffset": 5640,
      "byteLength": 288,
      "target": 34962
    },
    {
      "buffer": 0,
      "byteOffset": 5928,
      "byteLength": 288,
      "target": 34962
    },
    {
      "buffer": 0,
      "byteOffset": 6216,
      "byteLength": 48,
      "target": 34962
    }
  ],
  "images": [
    {
      "uri": "magneticraft:blocks/multiblocks/big_combustion_chamber"
    }
  ],
  "materials": [
    {
      "pbrMetallicRoughness": {
        "baseColorFactor": [
          1.0,
          1.0,
          1.0,
          1.0
        ],
        "baseColorTexture": {
          "index": 0,
          "texCoord": 0
        },
        "metallicFactor": 1.0,
        "roughnessFactor": 1.0
      },
      "alphaMode": "MASK",
      "alphaCutoff": 0.5,
      "doubleSided": false
    }
  ],
  "meshes": [
    {
      "primitives": [
        {
          "attributes": {
            "POSITION": 0,
            "TEXCOORD_0": 1
          },
          "material": 0,
          "mode": 4
        }
      ]
    },
    {
      "primitives": [
        {
          "attributes": {
            "POSITION": 2,
            "TEXCOORD_0": 3
          },
          "material": 0,
          "mode": 4
        }
      ]
    },
    {
      "primitives": [
        {
          "attributes": {
            "POSITION": 0,
            "TEXCOORD_0": 4
          },
          "material": 0,
          "mode": 4
        }
      ]
    },
    {
      "primitives": [
        {
          "attributes": {
            "POSITION": 0,
            "TEXCOORD_0": 5
          },
          "material": 0,
          "mode": 4
        }
      ]
    },
    {
      "primitives": [
        {
          "attributes": {
            "POSITION": 0,
            "TEXCOORD_0": 6
          },
          "material": 0,
          "mode": 4
        }
      ]
    },
    {
      "primitives": [
        {
          "attributes": {
            "POSITION": 0,
            "TEXCOORD_0": 7
          },
          "material": 0,
          "mode": 4
        }
      ]
    },
    {
      "primitives": [
        {
          "attributes": {
            "POSITION": 0,
            "TEXCOORD_0": 8
          },
          "material": 0,
          "mode": 4
        }
      ]
    },
    {
      "primitives": [
        {
          "attributes": {
            "POSITION": 0,
            "TEXCOORD_0": 9
          },
          "material": 0,
          "mode": 4
        }
      ]
    },
    {
      "primitives": [
        {
          "attributes": {
            "POSITION": 0,
            "TEXCOORD_0": 10
          },
          "material": 0,
          "mode": 4
        }
      ]
    },
    {
      "primitives": [
        {
          "attributes": {
            "POSITION": 0,
            "TEXCOORD_0": 11
          },
          "material": 0,
          "mode": 4
        }
      ]
    },
    {
      "primitives": [
        {
          "attributes": {
            "POSITION": 12,
            "TEXCOORD_0": 13
          },
          "material": 0,
          "mode": 4
        }
      ]
    },
    {
      "primitives": [
        {
          "attributes": {
            "POSITION": 0,
            "TEXCOORD_0": 14
          },
          "material": 0,
          "mode": 4
        }
      ]
    },
    {
      "primitives": [
        {
          "attributes": {
            "POSITION": 0,
            "TEXCOORD_0": 15
          },
          "material": 0,
          "mode": 4
        }
      ]
    },
    {
      "primitives": [
        {
          "attributes": {
            "POSITION": 0,
            "TEXCOORD_0": 16
          },
          "material": 0,
          "mode": 4
        }
      ]
    },
    {
      "primitives": [
        {
          "attributes": {
            "POSITION": 0,
            "TEXCOORD_0": 17
          },
          "material": 0,
          "mode": 4
        }
      ]
    },
    {
      "primitives": [
        {
          "attributes": {
            "POSITION": 0,
            "TEXCOORD_0": 18
          },
          "material": 0,
          "mode": 4
        }
      ]
    },
    {
      "primitives": [
        {
          "attributes": {
            "POSITION": 0,
            "TEXCOORD_0": 19
          },
          "material": 0,
          "mode": 4
        }
      ]
    },
    {
      "primitives": [
        {
          "attributes": {
            "POSITION": 0,
            "TEXCOORD_0": 20
          },
          "material": 0,
          "mode": 4
        }
      ]
    },
    {
      "primitives": [
        {
          "attributes": {
            "POSITION": 0,
            "TEXCOORD_0": 21
          },
          "material": 0,
          "mode": 4
        }
      ]
    },
    {
      "primitives": [
        {
          "attributes": {
            "POSITION": 0,
            "TEXCOORD_0": 22
          },
          "material": 0,
          "mode": 4
        }
      ]
    },
    {
      "primitives": [
        {
          "attributes": {
            "POSITION": 12,
            "TEXCOORD_0": 23
          },
          "material": 0,
          "mode": 4
        }
      ]
    }
  ],
  "nodes": [
    {
      "mesh": 0,
      "rotation": [
        0.0,
        0.0,
        0.0,
        1.0
      ],
      "scale": [
        48.0,
        2.0,
        48.0
      ],
      "translation": [
        -1.0,
        1.875,
        -1.0
      ],
      "name": "Object 0"
    },
    {
      "mesh": 1,
      "rotation": [
        0.0,
        0.0,
        0.0,
        1.0
      ],
      "scale": [
        8.0,
        28.0,
        8.0
      ],
      "translation": [
        1.5,
        0.125,
        1.5
      ],
      "name": "Object 3"
    },
    {
      "mesh": 2,
      "rotation": [
        0.0,
        0.0,
        0.0,
        1.0
      ],
      "scale": [
        1.0,
        10.0,
        10.0
      ],
      "translation": [
        -1.0,
        0.1875,
        0.1875
      ],
      "name": "Object 14"
    },
    {
      "mesh": 3,
      "rotation": [
        0.0,
        0.0,
        0.0,
        1.0
      ],
      "scale": [
        2.0,
        10.0,
        2.0
      ],
      "translation": [
        0.75,
        0.125,
        1.8125
      ],
      "name": "Object 16"
    },
    {
      "mesh": 4,
      "rotation": [
        0.0,
        0.0,
        0.0,
        1.0
      ],
      "scale": [
        32.0,
        2.0,
        3.0
      ],
      "translation": [
        -0.5,
        0.875,
        1.8125
      ],
      "name": "Object 20"
    },
    {
      "mesh": 5,
      "rotation": [
        0.0,
        0.0,
        0.0,
        1.0
      ],
      "scale": [
        3.0,
        1.0,
        2.0
      ],
      "translation": [
        -0.5,
        0.75,
        1.8125
      ],
      "name": "Object 20"
    },
    {
      "mesh": 6,
      "rotation": [
        0.0,
        0.0,
        0.0,
        1.0
      ],
      "scale": [
        4.0,
        1.0,
        2.0
      ],
      "translation": [
        -0.5,
        0.8125,
        1.8125
      ],
      "name": "Object 20"
    },
    {
      "mesh": 7,
      "rotation": [
        0.0,
        0.0,
        0.0,
        1.0
      ],
      "scale": [
        4.0,
        1.0,
        2.0
      ],
      "translation": [
        0.0625,
        0.75,
        1.8125
      ],
      "name": "Object 20"
    },
    {
      "mesh": 8,
      "rotation": [
        0.0,
        0.0,
        0.0,
        1.0
      ],
      "scale": [
        6.0,
        1.0,
        2.0
      ],
      "translation": [
        0.0,
        0.8125,
        1.8125
      ],
      "name": "Object 20"
    },
    {
      "mesh": 7,
      "rotation": [
        0.0,
        0.0,
        0.0,
        1.0
      ],
      "scale": [
        4.0,
        1.0,
        2.0
      ],
      "translation": [
        0.6875,
        0.75,
        1.8125
      ],
      "name": "Object 20"
    },
    {
      "mesh": 8,
      "rotation": [
        0.0,
        0.0,
        0.0,
        1.0
      ],
      "scale": [
        6.0,
        1.0,
        2.0
      ],
      "translation": [
        0.625,
        0.8125,
        1.8125
      ],
      "name": "Object 20"
    },
    {
      "mesh": 9,
      "rotation": [
        0.0,
        0.0,
        0.0,
        1.0
      ],
      "scale": [
        4.0,
        1.0,
        2.0
      ],
      "translation": [
        1.25,
        0.8125,
        1.8125
      ],
      "name": "Object 20"
    },
    {
      "mesh": 5,
      "rotation": [
        0.0,
        0.0,
        0.0,
        1.0
      ],
      "scale": [
        3.0,
        1.0,
        2.0
      ],
      "translation": [
        1.3125,
        0.75,
        1.8125
      ],
      "name": "Object 20"
    },
    {
      "mesh": 10,
      "rotation": [
        0.0,
        0.0,
        0.0,
        1.0
      ],
      "scale": [
        32.0,
        15.0,
        1.0
      ],
      "translation": [
        -0.5,
        0.0625,
        1.8125
      ],
      "name": "fire_on"
    },
    {
      "mesh": 1,
      "rotation": [
        0.0,
        0.0,
        0.0,
        1.0
      ],
      "scale": [
        8.0,
        28.0,
        8.0
      ],
      "translation": [
        1.5,
        0.125,
        -1.0
      ],
      "name": "Object 3"
    },
    {
      "mesh": 1,
      "rotation": [
        0.0,
        0.0,
        0.0,
        1.0
      ],
      "scale": [
        8.0,
        28.0,
        8.0
      ],
      "translation": [
        -1.0,
        0.125,
        1.5
      ],
      "name": "Object 3"
    },
    {
      "mesh": 1,
      "rotation": [
        0.0,
        0.0,
        0.0,
        1.0
      ],
      "scale": [
        8.0,
        28.0,
        8.0
      ],
      "translation": [
        -1.0,
        0.125,
        -1.0
      ],
      "name": "Object 3"
    },
    {
      "mesh": 11,
      "rotation": [
        0.0,
        0.0,
        0.0,
        1.0
      ],
      "scale": [
        1.0,
        28.0,
        16.0
      ],
      "translation": [
        1.875,
        0.125,
        -0.5
      ],
      "name": "Object 31"
    },
    {
      "mesh": 11,
      "rotation": [
        0.0,
        0.0,
        0.0,
        1.0
      ],
      "scale": [
        1.0,
        28.0,
        16.0
      ],
      "translation": [
        1.875,
        0.125,
        0.5
      ],
      "name": "Object 31"
    },
    {
      "mesh": 11,
      "rotation": [
        0.0,
        0.0,
        0.0,
        1.0
      ],
      "scale": [
        1.0,
        28.0,
        16.0
      ],
      "translation": [
        -0.9375,
        0.125,
        -0.5
      ],
      "name": "Object 31"
    },
    {
      "mesh": 11,
      "rotation": [
        0.0,
        0.0,
        0.0,
        1.0
      ],
      "scale": [
        1.0,
        28.0,
        16.0
      ],
      "translation": [
        -0.9375,
        0.125,
        0.5
      ],
      "name": "Object 31"
    },
    {
      "mesh": 11,
      "rotation": [
        0.0,
        -0.70710677,
        0.0,
        0.70710677
      ],
      "scale": [
        1.0,
        28.0,
        16.0
      ],
      "translation": [
        1.5,
        0.125,
        -0.9375
      ],
      "name": "Object 31"
    },
    {
      "mesh": 11,
      "rotation": [
        0.0,
        -0.70710677,
        0.0,
        0.70710677
      ],
      "scale": [
        1.0,
        28.0,
        16.0
      ],
      "translation": [
        0.5,
        0.125,
        -0.9375
      ],
      "name": "Object 31"
    },
    {
      "mesh": 12,
      "rotation": [
        0.0,
        0.0,
        0.0,
        1.0
      ],
      "scale": [
        16.0,
        15.0,
        1.0
      ],
      "translation": [
        -0.5,
        1.0,
        1.875
      ],
      "name": "Object 35"
    },
    {
      "mesh": 12,
      "rotation": [
        0.0,
        0.0,
        0.0,
        1.0
      ],
      "scale": [
        16.0,
        15.0,
        1.0
      ],
      "translation": [
        0.5,
        1.0,
        1.875
      ],
      "name": "Object 35"
    },
    {
      "mesh": 2,
      "rotation": [
        0.0,
        0.0,
        0.0,
        1.0
      ],
      "scale": [
        1.0,
        10.0,
        10.0
      ],
      "translation": [
        1.9375,
        0.1875,
        0.1875
      ],
      "name": "Object 14"
    },
    {
      "mesh": 13,
      "rotation": [
        0.0,
        0.0,
        0.0,
        1.0
      ],
      "scale": [
        2.0,
        10.0,
        2.0
      ],
      "translation": [
        1.375,
        0.125,
        1.8125
      ],
      "name": "Object 16"
    },
    {
      "mesh": 13,
      "rotation": [
        0.0,
        0.0,
        0.0,
        1.0
      ],
      "scale": [
        2.0,
        10.0,
        2.0
      ],
      "translation": [
        0.125,
        0.125,
        1.8125
      ],
      "name": "Object 16"
    },
    {
      "mesh": 3,
      "rotation": [
        0.0,
        0.0,
        0.0,
        1.0
      ],
      "scale": [
        2.0,
        10.0,
        2.0
      ],
      "translation": [
        -0.5,
        0.125,
        1.8125
      ],
      "name": "Object 16"
    },
    {
      "mesh": 14,
      "rotation": [
        0.0,
        0.0,
        0.0,
        1.0
      ],
      "scale": [
        48.0,
        2.0,
        48.0
      ],
      "translation": [
        -1.0,
        0.0,
        -1.0
      ],
      "name": "Object 0"
    },
    {
      "mesh": 15,
      "rotation": [
        0.0,
        0.0,
        0.0,
        1.0
      ],
      "scale": [
        14.0,
        2.0,
        16.0
      ],
      "translation": [
        0.0625,
        0.0,
        -2.0
      ],
      "name": "Object 37"
    },
    {
      "mesh": 16,
      "rotation": [
        0.0,
        0.0,
        0.0,
        1.0
      ],
      "scale": [
        8.0,
        14.0,
        8.0
      ],
      "translation": [
        0.25,
        1.0,
        -1.75
      ],
      "name": "Object 38"
    },
    {
      "mesh": 17,
      "rotation": [
        0.0,
        0.0,
        0.0,
        1.0
      ],
      "scale": [
        14.0,
        2.0,
        16.0
      ],
      "translation": [
        0.0625,
        0.0,
        -2.0
      ],
      "name": "Object 39"
    },
    {
      "mesh": 18,
      "rotation": [
        0.0,
        0.0,
        0.0,
        1.0
      ],
      "scale": [
        12.0,
        14.0,
        15.0
      ],
      "translation": [
        0.125,
        0.125,
        -1.9375
      ],
      "name": "Object 40"
    },
    {
      "mesh": 19,
      "rotation": [
        0.0,
        0.0,
        0.0,
        1.0
      ],
      "scale": [
        14.0,
        15.0,
        1.0
      ],
      "translation": [
        0.0625,
        0.125,
        -1.0
      ],
      "name": "Object 39"
    },
    {
      "mesh": 20,
      "rotation": [
        0.0,
        0.0,
        0.0,
        1.0
      ],
      "scale": [
        32.0,
        15.0,
        1.0
      ],
      "translation": [
        -0.5,
        0.0625,
        1.8125
      ],
      "name": "fire_off"
    },
    {
      "children": [
        0,
        1,
        2,
        3,
        4,
        5,
        6,
        7,
        8,
        9,
        10,
        11,
        12,
        13,
        14,
        15,
        16,
        17,
        18,
        19,
        20,
        21,
        22,
        23,
        24,
        25,
        26,
        27,
        28,
        29,
        30,
        31,
        32,
        33,
        34,
        35
      ],
      "name": "root"
    }
  ],
  "samplers": [
    {
      "magFilter": 9728,
      "minFilter": 9728,
      "wrapS": 10497,
      "wrapT": 10497,
      "name": "pixelated"
    }
  ],
  "scene": 0,
  "scenes": [
    {
      "nodes": [
        36
      ]
    }
  ],
  "textures": [
    {
      "sampler": 0,
      "source": 0
    }
  ]
}
