{
  "accessors": [
    {
      "bufferView": 0,
      "componentType": 5126,
      "count": 18,
      "type": "VEC3",
      "max": [
        0.875,
        1.75,
        1.0
      ],
      "min": [
        0.125,
        0.625,
        0.0
      ]
    },
    {
      "bufferView": 1,
      "componentType": 5126,
      "count": 18,
      "type": "VEC2",
      "max": [
        0.875000044703482,
        1.0000000335276107
      ],
      "min": [
        0.12499995529651797,
        -3.352761246411262E-8
      ]
    }
  ],
  "asset": {
    "generator": "TO_BE_NAMED glTF v2 Exporter",
    "version": "2.0"
  },
  "buffers": [
    {
      "uri": "conveyor_belt_up_anim.bin",
      "byteLength": 360
    }
  ],
  "bufferViews": [
    {
      "buffer": 0,
      "byteLength": 216,
      "target": 34962
    },
    {
      "buffer": 0,
      "byteOffset": 216,
      "byteLength": 144,
      "target": 34962
    }
  ],
  "images": [
    {
      "uri": "magneticraft:blocks/machines/conveyor_belt_anim"
    }
  ],
  "materials": [
    {
      "pbrMetallicRoughness": {
        "baseColorFactor": [
          1.0,
          1.0,
          1.0,
          1.0
        ],
        "baseColorTexture": {
          "index": 0,
          "texCoord": 0
        },
        "metallicFactor": 1.0,
        "roughnessFactor": 1.0
      },
      "alphaMode": "MASK",
      "alphaCutoff": 0.5,
      "doubleSided": false
    }
  ],
  "meshes": [
    {
      "primitives": [
        {
          "attributes": {
            "POSITION": 0,
            "TEXCOORD_0": 1
          },
          "material": 0,
          "mode": 4
        }
      ]
    }
  ],
  "nodes": [
    {
      "mesh": 0,
      "name": "belt"
    },
    {
      "children": [
        0
      ],
      "name": "Group 22"
    },
    {
      "children": [
        1
      ],
      "name": "root"
    }
  ],
  "samplers": [
    {
      "magFilter": 9728,
      "minFilter": 9728,
      "wrapS": 10497,
      "wrapT": 10497,
      "name": "pixelated"
    }
  ],
  "scene": 0,
  "scenes": [
    {
      "nodes": [
        2
      ]
    }
  ],
  "textures": [
    {
      "sampler": 0,
      "source": 0
    }
  ]
}