{
  "accessors": [
    {
      "bufferView": 0,
      "componentType": 5126,
      "count": 36,
      "type": "VEC3",
      "max": [
        0.0625,
        0.0625,
        0.0625
      ],
      "min": [
        0.0,
        0.0,
        0.0
      ]
    },
    {
      "bufferView": 1,
      "componentType": 5126,
      "count": 36,
      "type": "VEC2",
      "max": [
        1.0,
        0.25
      ],
      "min": [
        0.84375,
        0.0
      ]
    },
    {
      "bufferView": 2,
      "componentType": 5126,
      "count": 36,
      "type": "VEC2",
      "max": [
        1.0,
        0.3125
      ],
      "min": [
        0.84375,
        0.25
      ]
    },
    {
      "bufferView": 3,
      "componentType": 5126,
      "count": 36,
      "type": "VEC2",
      "max": [
        1.0,
        0.5
      ],
      "min": [
        0.84375,
        0.4375
      ]
    },
    {
      "bufferView": 4,
      "componentType": 5126,
      "count": 36,
      "type": "VEC2",
      "max": [
        1.0,
        0.4375
      ],
      "min": [
        0.84375,
        0.375
      ]
    },
    {
      "bufferView": 5,
      "componentType": 5126,
      "count": 36,
      "type": "VEC2",
      "max": [
        0.6875,
        0.5
      ],
      "min": [
        0.0,
        0.25
      ]
    },
    {
      "bufferView": 6,
      "componentType": 5126,
      "count": 36,
      "type": "VEC2",
      "max": [
        0.75,
        0.25
      ],
      "min": [
        0.0,
        0.0
      ]
    },
    {
      "bufferView": 7,
      "componentType": 5126,
      "count": 36,
      "type": "VEC2",
      "max": [
        0.5625,
        0.8125
      ],
      "min": [
        0.0,
        0.625
      ]
    },
    {
      "bufferView": 8,
      "componentType": 5126,
      "count": 36,
      "type": "VEC2",
      "max": [
        1.0,
        0.375
      ],
      "min": [
        0.84375,
        0.3125
      ]
    },
    {
      "bufferView": 9,
      "componentType": 5126,
      "count": 36,
      "type": "VEC2",
      "max": [
        0.625,
        0.625
      ],
      "min": [
        0.0,
        0.5
      ]
    },
    {
      "bufferView": 10,
      "componentType": 5126,
      "count": 5,
      "type": "SCALAR",
      "max": [
        1.0
      ],
      "min": [
        0.0
      ]
    },
    {
      "bufferView": 11,
      "componentType": 5126,
      "count": 5,
      "type": "VEC3",
      "max": [
        0.125,
        0.5,
        0.5
      ],
      "min": [
        0.125,
        0.5,
        0.5
      ]
    },
    {
      "bufferView": 12,
      "componentType": 5126,
      "count": 5,
      "type": "VEC4",
      "max": [
        1.0,
        0.0,
        0.0,
        1.0
      ],
      "min": [
        -0.7071067690849304,
        0.0,
        0.0,
        0.0
      ]
    },
    {
      "bufferView": 13,
      "componentType": 5126,
      "count": 3,
      "type": "SCALAR",
      "max": [
        1.0
      ],
      "min": [
        0.0
      ]
    },
    {
      "bufferView": 14,
      "componentType": 5126,
      "count": 3,
      "type": "VEC3",
      "max": [
        0.8125,
        0.125,
        0.125
      ],
      "min": [
        0.625,
        0.125,
        0.125
      ]
    },
    {
      "bufferView": 15,
      "componentType": 5126,
      "count": 3,
      "type": "VEC3",
      "max": [
        3.0,
        12.0,
        12.0
      ],
      "min": [
        3.0,
        12.0,
        12.0
      ]
    }
  ],
  "animations": [
    {
      "name": "animation",
      "channels": [
        {
          "sampler": 0,
          "target": {
            "node": 4,
            "path": "translation"
          }
        },
        {
          "sampler": 1,
          "target": {
            "node": 4,
            "path": "rotation"
          }
        },
        {
          "sampler": 2,
          "target": {
            "node": 10,
            "path": "translation"
          }
        },
        {
          "sampler": 3,
          "target": {
            "node": 10,
            "path": "scale"
          }
        }
      ],
      "samplers": [
        {
          "input": 10,
          "interpolation": "LINEAR",
          "output": 11
        },
        {
          "input": 10,
          "interpolation": "LINEAR",
          "output": 12
        },
        {
          "input": 13,
          "interpolation": "LINEAR",
          "output": 14
        },
        {
          "input": 13,
          "interpolation": "LINEAR",
          "output": 15
        }
      ]
    }
  ],
  "asset": {
    "generator": "Cout970\u0027s Modeler glTF v2 Exporter",
    "version": "2.0"
  },
  "buffers": [
    {
      "uri": "electric_engine.bin",
      "byteLength": 3268
    }
  ],
  "bufferViews": [
    {
      "buffer": 0,
      "byteLength": 432,
      "target": 34962
    },
    {
      "buffer": 0,
      "byteOffset": 432,
      "byteLength": 288,
      "target": 34962
    },
    {
      "buffer": 0,
      "byteOffset": 720,
      "byteLength": 288,
      "target": 34962
    },
    {
      "buffer": 0,
      "byteOffset": 1008,
      "byteLength": 288,
      "target": 34962
    },
    {
      "buffer": 0,
      "byteOffset": 1296,
      "byteLength": 288,
      "target": 34962
    },
    {
      "buffer": 0,
      "byteOffset": 1584,
      "byteLength": 288,
      "target": 34962
    },
    {
      "buffer": 0,
      "byteOffset": 1872,
      "byteLength": 288,
      "target": 34962
    },
    {
      "buffer": 0,
      "byteOffset": 2160,
      "byteLength": 288,
      "target": 34962
    },
    {
      "buffer": 0,
      "byteOffset": 2448,
      "byteLength": 288,
      "target": 34962
    },
    {
      "buffer": 0,
      "byteOffset": 2736,
      "byteLength": 288,
      "target": 34962
    },
    {
      "buffer": 0,
      "byteOffset": 3024,
      "byteLength": 20
    },
    {
      "buffer": 0,
      "byteOffset": 3044,
      "byteLength": 60
    },
    {
      "buffer": 0,
      "byteOffset": 3104,
      "byteLength": 80
    },
    {
      "buffer": 0,
      "byteOffset": 3184,
      "byteLength": 12
    },
    {
      "buffer": 0,
      "byteOffset": 3196,
      "byteLength": 36
    },
    {
      "buffer": 0,
      "byteOffset": 3232,
      "byteLength": 36
    }
  ],
  "images": [
    {
      "uri": "magneticraft:blocks/electric_machines/electric_engine"
    }
  ],
  "materials": [
    {
      "pbrMetallicRoughness": {
        "baseColorFactor": [
          1.0,
          1.0,
          1.0,
          1.0
        ],
        "baseColorTexture": {
          "index": 0,
          "texCoord": 0
        },
        "metallicFactor": 1.0,
        "roughnessFactor": 1.0
      },
      "alphaMode": "MASK",
      "alphaCutoff": 0.5,
      "doubleSided": false
    }
  ],
  "meshes": [
    {
      "primitives": [
        {
          "attributes": {
            "POSITION": 0,
            "TEXCOORD_0": 1
          },
          "material": 0,
          "mode": 4
        }
      ]
    },
    {
      "primitives": [
        {
          "attributes": {
            "POSITION": 0,
            "TEXCOORD_0": 1
          },
          "material": 0,
          "mode": 4
        }
      ]
    },
    {
      "primitives": [
        {
          "attributes": {
            "POSITION": 0,
            "TEXCOORD_0": 2
          },
          "material": 0,
          "mode": 4
        }
      ]
    },
    {
      "primitives": [
        {
          "attributes": {
            "POSITION": 0,
            "TEXCOORD_0": 3
          },
          "material": 0,
          "mode": 4
        }
      ]
    },
    {
      "primitives": [
        {
          "attributes": {
            "POSITION": 0,
            "TEXCOORD_0": 4
          },
          "material": 0,
          "mode": 4
        }
      ]
    },
    {
      "primitives": [
        {
          "attributes": {
            "POSITION": 0,
            "TEXCOORD_0": 5
          },
          "material": 0,
          "mode": 4
        }
      ]
    },
    {
      "primitives": [
        {
          "attributes": {
            "POSITION": 0,
            "TEXCOORD_0": 6
          },
          "material": 0,
          "mode": 4
        }
      ]
    },
    {
      "primitives": [
        {
          "attributes": {
            "POSITION": 0,
            "TEXCOORD_0": 7
          },
          "material": 0,
          "mode": 4
        }
      ]
    },
    {
      "primitives": [
        {
          "attributes": {
            "POSITION": 0,
            "TEXCOORD_0": 8
          },
          "material": 0,
          "mode": 4
        }
      ]
    },
    {
      "primitives": [
        {
          "attributes": {
            "POSITION": 0,
            "TEXCOORD_0": 9
          },
          "material": 0,
          "mode": 4
        }
      ]
    }
  ],
  "nodes": [
    {
      "mesh": 0,
      "rotation": [
        0.38268346,
        0.0,
        0.0,
        -0.9238795
      ],
      "scale": [
        3.0,
        14.0,
        2.0
      ],
      "translation": [
        0.125,
        -0.35355338479790727,
        0.26518750190734863
      ],
      "name": "coil1"
    },
    {
      "mesh": 1,
      "rotation": [
        -0.38268346,
        0.0,
        0.0,
        -0.9238795
      ],
      "scale": [
        3.0,
        14.0,
        2.0
      ],
      "translation": [
        0.12500000000000006,
        -0.2652140443156064,
        -0.35353599535783176
      ],
      "name": "coil2"
    },
    {
      "mesh": 1,
      "rotation": [
        -1.0,
        0.0,
        0.0,
        -4.4703484E-8
      ],
      "scale": [
        3.000000000000001,
        14.0,
        2.0
      ],
      "translation": [
        0.1250000000000001,
        0.43749461388689986,
        0.06250434519954844
      ],
      "name": "coil3"
    },
    {
      "mesh": 1,
      "rotation": [
        -0.7071067,
        0.0,
        0.0,
        -0.7071068
      ],
      "scale": [
        3.000000000000001,
        14.0,
        2.0
      ],
      "translation": [
        0.12500000000000008,
        0.0624563243639452,
        -0.4374645403689436
      ],
      "name": "coil4"
    },
    {
      "children": [
        0,
        1,
        2,
        3
      ],
      "rotation": [
        0.0,
        0.0,
        0.0,
        1.0
      ],
      "scale": [
        1.0,
        1.0,
        1.0
      ],
      "translation": [
        0.125,
        0.5,
        0.5
      ],
      "name": "Group 18"
    },
    {
      "mesh": 2,
      "rotation": [
        0.0,
        0.0,
        0.0,
        1.0
      ],
      "scale": [
        3.0,
        2.0,
        2.0
      ],
      "translation": [
        0.25,
        0.875,
        0.875
      ],
      "name": "Shape1"
    },
    {
      "mesh": 3,
      "rotation": [
        0.0,
        0.0,
        0.0,
        1.0
      ],
      "scale": [
        3.0,
        2.0,
        2.0
      ],
      "translation": [
        0.25,
        0.0,
        0.875
      ],
      "name": "Shape2"
    },
    {
      "mesh": 4,
      "rotation": [
        0.0,
        0.0,
        0.0,
        1.0
      ],
      "scale": [
        3.0,
        2.0,
        2.0
      ],
      "translation": [
        0.25,
        0.0,
        0.0
      ],
      "name": "Shape3"
    },
    {
      "mesh": 5,
      "rotation": [
        0.0,
        0.0,
        0.0,
        1.0
      ],
      "scale": [
        3.0,
        16.0,
        16.0
      ],
      "translation": [
        0.4375,
        0.0,
        0.0
      ],
      "name": "Shape5"
    },
    {
      "mesh": 6,
      "rotation": [
        0.0,
        0.0,
        0.0,
        1.0
      ],
      "scale": [
        4.0,
        16.0,
        16.0
      ],
      "translation": [
        0.0,
        0.0,
        0.0
      ],
      "name": "Shape6"
    },
    {
      "mesh": 7,
      "rotation": [
        0.0,
        0.0,
        0.0,
        1.0
      ],
      "scale": [
        3.0,
        12.0,
        12.0
      ],
      "translation": [
        0.625,
        0.125,
        0.125
      ],
      "name": "piston"
    },
    {
      "mesh": 8,
      "rotation": [
        0.0,
        0.0,
        0.0,
        1.0
      ],
      "scale": [
        3.0,
        2.0,
        2.0
      ],
      "translation": [
        0.25,
        0.875,
        0.0
      ],
      "name": "Shape4"
    },
    {
      "mesh": 9,
      "rotation": [
        0.0,
        0.0,
        0.0,
        1.0
      ],
      "scale": [
        6.0,
        8.0,
        8.0
      ],
      "translation": [
        0.625,
        0.25,
        0.25
      ],
      "name": "Object 11"
    },
    {
      "children": [
        4,
        5,
        6,
        7,
        8,
        9,
        10,
        11,
        12
      ],
      "name": "root"
    }
  ],
  "samplers": [
    {
      "magFilter": 9728,
      "minFilter": 9728,
      "wrapS": 10497,
      "wrapT": 10497,
      "name": "pixelated"
    }
  ],
  "scene": 0,
  "scenes": [
    {
      "nodes": [
        13
      ]
    }
  ],
  "textures": [
    {
      "sampler": 0,
      "source": 0
    }
  ]
}