{
  "accessors": [
    {
      "bufferView": 0,
      "componentType": 5126,
      "count": 36,
      "type": "VEC3",
      "max": [
        0.0625,
        0.0625,
        0.0625
      ],
      "min": [
        0.0,
        0.0,
        0.0
      ]
    },
    {
      "bufferView": 1,
      "componentType": 5126,
      "count": 36,
      "type": "VEC2",
      "max": [
        0.5,
        0.1875
      ],
      "min": [
        0.0,
        0.0
      ]
    },
    {
      "bufferView": 2,
      "componentType": 5126,
      "count": 36,
      "type": "VEC2",
      "max": [
        0.25,
        0.34375
      ],
      "min": [
        0.0,
        0.1875
      ]
    },
    {
      "bufferView": 3,
      "componentType": 5126,
      "count": 36,
      "type": "VEC2",
      "max": [
        1.000000001365981,
        0.3906250006829905
      ],
      "min": [
        0.5,
        0.0
      ]
    },
    {
      "bufferView": 4,
      "componentType": 5126,
      "count": 36,
      "type": "VEC2",
      "max": [
        1.0000000027319618,
        0.39062500136598083
      ],
      "min": [
        0.5,
        0.0
      ]
    },
    {
      "bufferView": 5,
      "componentType": 5126,
      "count": 36,
      "type": "VEC2",
      "max": [
        1.0,
        0.375
      ],
      "min": [
        0.5,
        0.0
      ]
    }
  ],
  "asset": {
    "generator": "TO_BE_NAMED glTF v2 Exporter",
    "version": "2.0"
  },
  "buffers": [
    {
      "uri": "energy_receiver.bin",
      "byteLength": 1872
    }
  ],
  "bufferViews": [
    {
      "buffer": 0,
      "byteLength": 432,
      "target": 34962
    },
    {
      "buffer": 0,
      "byteOffset": 432,
      "byteLength": 288,
      "target": 34962
    },
    {
      "buffer": 0,
      "byteOffset": 720,
      "byteLength": 288,
      "target": 34962
    },
    {
      "buffer": 0,
      "byteOffset": 1008,
      "byteLength": 288,
      "target": 34962
    },
    {
      "buffer": 0,
      "byteOffset": 1296,
      "byteLength": 288,
      "target": 34962
    },
    {
      "buffer": 0,
      "byteOffset": 1584,
      "byteLength": 288,
      "target": 34962
    }
  ],
  "images": [
    {
      "uri": "magneticraft:blocks/electric_connectors/energy_receiver"
    }
  ],
  "materials": [
    {
      "pbrMetallicRoughness": {
        "baseColorFactor": [
          1.0,
          1.0,
          1.0,
          1.0
        ],
        "baseColorTexture": {
          "index": 0,
          "texCoord": 0
        },
        "metallicFactor": 1.0,
        "roughnessFactor": 1.0
      },
      "alphaMode": "MASK",
      "alphaCutoff": 0.5,
      "doubleSided": false
    }
  ],
  "meshes": [
    {
      "primitives": [
        {
          "attributes": {
            "POSITION": 0,
            "TEXCOORD_0": 1
          },
          "material": 0,
          "mode": 4
        }
      ]
    },
    {
      "primitives": [
        {
          "attributes": {
            "POSITION": 0,
            "TEXCOORD_0": 2
          },
          "material": 0,
          "mode": 4
        }
      ]
    },
    {
      "primitives": [
        {
          "attributes": {
            "POSITION": 0,
            "TEXCOORD_0": 3
          },
          "material": 0,
          "mode": 4
        }
      ]
    },
    {
      "primitives": [
        {
          "attributes": {
            "POSITION": 0,
            "TEXCOORD_0": 4
          },
          "material": 0,
          "mode": 4
        }
      ]
    },
    {
      "primitives": [
        {
          "attributes": {
            "POSITION": 0,
            "TEXCOORD_0": 5
          },
          "material": 0,
          "mode": 4
        }
      ]
    }
  ],
  "nodes": [
    {
      "mesh": 0,
      "rotation": [
        0.0,
        0.0,
        0.0,
        1.0
      ],
      "scale": [
        2.0,
        1.0,
        2.0
      ],
      "translation": [
        0.4375,
        0.0,
        0.4375
      ],
      "name": "Object 1"
    },
    {
      "mesh": 1,
      "rotation": [
        0.0,
        0.0,
        0.0,
        1.0
      ],
      "scale": [
        1.0,
        1.5,
        1.0
      ],
      "translation": [
        0.46875,
        0.0625,
        0.46875
      ],
      "name": "Object 2"
    },
    {
      "mesh": 2,
      "rotation": [
        -0.70710677,
        0.0,
        0.0,
        0.70710677
      ],
      "scale": [
        1.0,
        2.125,
        1.000000005463924
      ],
      "translation": [
        0.4687500000000001,
        0.15625000273196177,
        0.5664062513659804
      ],
      "name": "Object 2"
    },
    {
      "mesh": 2,
      "rotation": [
        -0.70710677,
        0.0,
        0.0,
        0.70710677
      ],
      "scale": [
        1.0,
        2.125,
        1.000000005463924
      ],
      "translation": [
        0.4687500000000001,
        0.40625000273196177,
        0.5664062513659804
      ],
      "name": "Object 2"
    },
    {
      "mesh": 3,
      "rotation": [
        -1.0,
        0.0,
        0.0,
        -4.3711392E-8
      ],
      "scale": [
        1.0,
        2.124999999999999,
        1.0000000109278475
      ],
      "translation": [
        0.4687500000000002,
        0.37890624726803734,
        0.40624999453607535
      ],
      "name": "Object 2"
    },
    {
      "mesh": 3,
      "rotation": [
        -1.0,
        0.0,
        0.0,
        -4.3711392E-8
      ],
      "scale": [
        1.0,
        2.124999999999999,
        1.0000000109278475
      ],
      "translation": [
        0.4687500000000002,
        0.3789062581958851,
        0.6562499945360751
      ],
      "name": "Object 2"
    },
    {
      "mesh": 4,
      "rotation": [
        -0.92387956,
        0.0,
        0.0,
        0.3826834
      ],
      "scale": [
        1.0,
        2.0,
        1.0
      ],
      "translation": [
        0.468812495470047,
        0.4229854369751336,
        0.4779029097072892
      ],
      "name": "Object 2"
    },
    {
      "mesh": 4,
      "rotation": [
        -0.92387956,
        0.0,
        0.0,
        0.3826834
      ],
      "scale": [
        1.0,
        2.0,
        1.0
      ],
      "translation": [
        0.468812495470047,
        0.24620874554207428,
        0.6546796088675036
      ],
      "name": "Object 2"
    },
    {
      "mesh": 4,
      "rotation": [
        -0.9238795,
        0.0,
        0.0,
        -0.3826835
      ],
      "scale": [
        1.0,
        2.0,
        1.0
      ],
      "translation": [
        0.468812495470047,
        0.2904029048778174,
        0.38951456399075957
      ],
      "name": "Object 2"
    },
    {
      "mesh": 4,
      "rotation": [
        -0.9238795,
        0.0,
        0.0,
        -0.3826835
      ],
      "scale": [
        1.0,
        2.0,
        1.0
      ],
      "translation": [
        0.468812495470047,
        0.4671796117651865,
        0.5662912476966633
      ],
      "name": "Object 2"
    },
    {
      "children": [
        0,
        1,
        2,
        3,
        4,
        5,
        6,
        7,
        8,
        9
      ],
      "name": "root"
    }
  ],
  "samplers": [
    {
      "magFilter": 9728,
      "minFilter": 9728,
      "wrapS": 10497,
      "wrapT": 10497,
      "name": "pixelated"
    }
  ],
  "scene": 0,
  "scenes": [
    {
      "nodes": [
        10
      ]
    }
  ],
  "textures": [
    {
      "sampler": 0,
      "source": 0
    }
  ]
}