{
  "accessors": [
    {
      "bufferView": 0,
      "componentType": 5126,
      "count": 30,
      "type": "VEC3",
      "max": [
        0.0625,
        0.0625,
        0.0625
      ],
      "min": [
        0.0,
        0.0,
        0.0
      ]
    },
    {
      "bufferView": 1,
      "componentType": 5126,
      "count": 30,
      "type": "VEC2",
      "max": [
        1.0,
        0.90625
      ],
      "min": [
        0.625,
        0.03125
      ]
    },
    {
      "bufferView": 2,
      "componentType": 5126,
      "count": 30,
      "type": "VEC3",
      "max": [
        0.0625,
        0.0625,
        0.0625
      ],
      "min": [
        0.0,
        0.0,
        0.0
      ]
    },
    {
      "bufferView": 3,
      "componentType": 5126,
      "count": 30,
      "type": "VEC2",
      "max": [
        1.0,
        0.90625
      ],
      "min": [
        0.625,
        0.03125
      ]
    },
    {
      "bufferView": 4,
      "componentType": 5126,
      "count": 6,
      "type": "VEC3",
      "max": [
        0.0625,
        0.0625,
        0.0
      ],
      "min": [
        0.0,
        0.0,
        0.0
      ]
    },
    {
      "bufferView": 5,
      "componentType": 5126,
      "count": 6,
      "type": "VEC2",
      "max": [
        0.25,
        0.34375
      ],
      "min": [
        0.0,
        0.09375
      ]
    },
    {
      "bufferView": 6,
      "componentType": 5126,
      "count": 6,
      "type": "VEC3",
      "max": [
        0.0625,
        0.0625,
        0.0625
      ],
      "min": [
        0.0,
        0.0,
        0.0625
      ]
    },
    {
      "bufferView": 7,
      "componentType": 5126,
      "count": 6,
      "type": "VEC2",
      "max": [
        0.25,
        0.34375
      ],
      "min": [
        0.0,
        0.09375
      ]
    },
    {
      "bufferView": 8,
      "componentType": 5126,
      "count": 6,
      "type": "VEC3",
      "max": [
        0.0625,
        0.0625,
        0.0625
      ],
      "min": [
        0.0625,
        0.0,
        0.0
      ]
    },
    {
      "bufferView": 9,
      "componentType": 5126,
      "count": 6,
      "type": "VEC3",
      "max": [
        0.0,
        0.0625,
        0.0625
      ],
      "min": [
        0.0,
        0.0,
        0.0
      ]
    },
    {
      "bufferView": 10,
      "componentType": 5126,
      "count": 12,
      "type": "VEC3",
      "max": [
        0.0625,
        0.0625,
        0.0625
      ],
      "min": [
        0.0,
        0.0,
        0.0
      ]
    },
    {
      "bufferView": 11,
      "componentType": 5126,
      "count": 12,
      "type": "VEC2",
      "max": [
        0.625,
        0.28125
      ],
      "min": [
        0.375,
        0.03125
      ]
    }
  ],
  "asset": {
    "generator": "CubiCreator glTF v2 Exporter",
    "version": "2.0"
  },
  "buffers": [
    {
      "uri": "pneumatic_restriction_tube_inv.bin",
      "byteLength": 1824
    }
  ],
  "bufferViews": [
    {
      "buffer": 0,
      "byteLength": 360,
      "target": 34962
    },
    {
      "buffer": 0,
      "byteOffset": 360,
      "byteLength": 240,
      "target": 34962
    },
    {
      "buffer": 0,
      "byteOffset": 600,
      "byteLength": 360,
      "target": 34962
    },
    {
      "buffer": 0,
      "byteOffset": 960,
      "byteLength": 240,
      "target": 34962
    },
    {
      "buffer": 0,
      "byteOffset": 1200,
      "byteLength": 72,
      "target": 34962
    },
    {
      "buffer": 0,
      "byteOffset": 1272,
      "byteLength": 48,
      "target": 34962
    },
    {
      "buffer": 0,
      "byteOffset": 1320,
      "byteLength": 72,
      "target": 34962
    },
    {
      "buffer": 0,
      "byteOffset": 1392,
      "byteLength": 48,
      "target": 34962
    },
    {
      "buffer": 0,
      "byteOffset": 1440,
      "byteLength": 72,
      "target": 34962
    },
    {
      "buffer": 0,
      "byteOffset": 1512,
      "byteLength": 72,
      "target": 34962
    },
    {
      "buffer": 0,
      "byteOffset": 1584,
      "byteLength": 144,
      "target": 34962
    },
    {
      "buffer": 0,
      "byteOffset": 1728,
      "byteLength": 96,
      "target": 34962
    }
  ],
  "images": [
    {
      "uri": "magneticraft:blocks/machines/pneumatic_tube"
    }
  ],
  "materials": [
    {
      "pbrMetallicRoughness": {
        "baseColorFactor": [
          1.0,
          1.0,
          1.0,
          1.0
        ],
        "baseColorTexture": {
          "index": 0,
          "texCoord": 0
        },
        "metallicFactor": 1.0,
        "roughnessFactor": 1.0
      },
      "alphaMode": "MASK",
      "alphaCutoff": 0.5,
      "doubleSided": false
    }
  ],
  "meshes": [
    {
      "primitives": [
        {
          "attributes": {
            "POSITION": 0,
            "TEXCOORD_0": 1
          },
          "material": 0,
          "mode": 4
        }
      ]
    },
    {
      "primitives": [
        {
          "attributes": {
            "POSITION": 2,
            "TEXCOORD_0": 3
          },
          "material": 0,
          "mode": 4
        }
      ]
    },
    {
      "primitives": [
        {
          "attributes": {
            "POSITION": 4,
            "TEXCOORD_0": 5
          },
          "material": 0,
          "mode": 4
        }
      ]
    },
    {
      "primitives": [
        {
          "attributes": {
            "POSITION": 6,
            "TEXCOORD_0": 7
          },
          "material": 0,
          "mode": 4
        }
      ]
    },
    {
      "primitives": [
        {
          "attributes": {
            "POSITION": 8,
            "TEXCOORD_0": 5
          },
          "material": 0,
          "mode": 4
        }
      ]
    },
    {
      "primitives": [
        {
          "attributes": {
            "POSITION": 9,
            "TEXCOORD_0": 7
          },
          "material": 0,
          "mode": 4
        }
      ]
    },
    {
      "primitives": [
        {
          "attributes": {
            "POSITION": 10,
            "TEXCOORD_0": 11
          },
          "material": 0,
          "mode": 4
        }
      ]
    }
  ],
  "nodes": [
    {
      "mesh": 0,
      "rotation": [
        0.0,
        0.0,
        0.0,
        1.0
      ],
      "scale": [
        8.0,
        4.0,
        8.0
      ],
      "translation": [
        0.25,
        0.0,
        0.25
      ],
      "name": "down"
    },
    {
      "mesh": 1,
      "rotation": [
        0.0,
        0.0,
        0.0,
        1.0
      ],
      "scale": [
        8.0,
        4.0,
        8.0
      ],
      "translation": [
        0.25,
        0.75,
        0.25
      ],
      "name": "up"
    },
    {
      "mesh": 2,
      "rotation": [
        0.0,
        0.0,
        0.0,
        1.0
      ],
      "scale": [
        8.0,
        8.0,
        8.0
      ],
      "translation": [
        0.25,
        0.25,
        0.25
      ],
      "name": "center_north_v"
    },
    {
      "mesh": 3,
      "rotation": [
        0.0,
        0.0,
        0.0,
        1.0
      ],
      "scale": [
        8.0,
        8.0,
        8.0
      ],
      "translation": [
        0.25,
        0.25,
        0.25
      ],
      "name": "center_south_v"
    },
    {
      "mesh": 4,
      "rotation": [
        0.0,
        0.0,
        0.0,
        1.0
      ],
      "scale": [
        8.0,
        8.0,
        8.0
      ],
      "translation": [
        0.25,
        0.25,
        0.25
      ],
      "name": "center_east_v"
    },
    {
      "mesh": 5,
      "rotation": [
        0.0,
        0.0,
        0.0,
        1.0
      ],
      "scale": [
        8.0,
        8.0,
        8.0
      ],
      "translation": [
        0.25,
        0.25,
        0.25
      ],
      "name": "center_west_v"
    },
    {
      "mesh": 6,
      "rotation": [
        0.0,
        0.0,
        0.0,
        1.0
      ],
      "scale": [
        8.0,
        16.0,
        8.0
      ],
      "translation": [
        0.25,
        0.0,
        0.25
      ],
      "name": "Object 19"
    },
    {
      "children": [
        0,
        1,
        2,
        3,
        4,
        5,
        6
      ],
      "name": "root"
    }
  ],
  "samplers": [
    {
      "magFilter": 9728,
      "minFilter": 9728,
      "wrapS": 10497,
      "wrapT": 10497,
      "name": "pixelated"
    }
  ],
  "scene": 0,
  "scenes": [
    {
      "nodes": [
        7
      ]
    }
  ],
  "textures": [
    {
      "sampler": 0,
      "source": 0
    }
  ]
}