{
  "accessors": [
    {
      "bufferView": 0,
      "componentType": 5126,
      "count": 30,
      "type": "VEC3",
      "max": [
        0.0625,
        0.0625,
        0.0625
      ],
      "min": [
        0.0,
        0.0,
        0.0
      ]
    },
    {
      "bufferView": 1,
      "componentType": 5126,
      "count": 30,
      "type": "VEC2",
      "max": [
        1.0,
        0.90625
      ],
      "min": [
        0.5,
        0.03125
      ]
    },
    {
      "bufferView": 2,
      "componentType": 5126,
      "count": 30,
      "type": "VEC3",
      "max": [
        0.0625,
        0.0625,
        0.0625
      ],
      "min": [
        0.0,
        0.0,
        0.0
      ]
    },
    {
      "bufferView": 3,
      "componentType": 5126,
      "count": 30,
      "type": "VEC2",
      "max": [
        1.0,
        0.90625
      ],
      "min": [
        0.5,
        0.03125
      ]
    },
    {
      "bufferView": 4,
      "componentType": 5126,
      "count": 30,
      "type": "VEC3",
      "max": [
        0.0625,
        0.0625,
        0.0625
      ],
      "min": [
        0.0,
        0.0,
        0.0
      ]
    },
    {
      "bufferView": 5,
      "componentType": 5126,
      "count": 30,
      "type": "VEC2",
      "max": [
        1.0,
        0.90625
      ],
      "min": [
        0.625,
        0.03125
      ]
    },
    {
      "bufferView": 6,
      "componentType": 5126,
      "count": 30,
      "type": "VEC3",
      "max": [
        0.0625,
        0.0625,
        0.0625
      ],
      "min": [
        0.0,
        0.0,
        0.0
      ]
    },
    {
      "bufferView": 7,
      "componentType": 5126,
      "count": 30,
      "type": "VEC2",
      "max": [
        1.0,
        0.90625
      ],
      "min": [
        0.625,
        0.03125
      ]
    },
    {
      "bufferView": 8,
      "componentType": 5126,
      "count": 30,
      "type": "VEC3",
      "max": [
        0.0625,
        0.0625,
        0.0625
      ],
      "min": [
        0.0,
        0.0,
        0.0
      ]
    },
    {
      "bufferView": 9,
      "componentType": 5126,
      "count": 30,
      "type": "VEC2",
      "max": [
        0.875,
        0.71875
      ],
      "min": [
        0.25,
        0.03125
      ]
    },
    {
      "bufferView": 10,
      "componentType": 5126,
      "count": 30,
      "type": "VEC3",
      "max": [
        0.0625,
        0.0625,
        0.0625
      ],
      "min": [
        0.0,
        0.0,
        0.0
      ]
    },
    {
      "bufferView": 11,
      "componentType": 5126,
      "count": 30,
      "type": "VEC2",
      "max": [
        0.875,
        0.71875
      ],
      "min": [
        0.25,
        0.03125
      ]
    },
    {
      "bufferView": 12,
      "componentType": 5126,
      "count": 36,
      "type": "VEC3",
      "max": [
        0.0625,
        0.0625,
        0.0625
      ],
      "min": [
        0.0,
        0.0,
        0.0
      ]
    },
    {
      "bufferView": 13,
      "componentType": 5126,
      "count": 36,
      "type": "VEC2",
      "max": [
        0.71875,
        1.0
      ],
      "min": [
        0.46875,
        0.75
      ]
    },
    {
      "bufferView": 14,
      "componentType": 5126,
      "count": 6,
      "type": "VEC3",
      "max": [
        0.0625,
        0.0625,
        0.0
      ],
      "min": [
        0.0,
        0.0,
        0.0
      ]
    },
    {
      "bufferView": 15,
      "componentType": 5126,
      "count": 6,
      "type": "VEC2",
      "max": [
        0.25,
        0.34375
      ],
      "min": [
        0.0,
        0.09375
      ]
    },
    {
      "bufferView": 16,
      "componentType": 5126,
      "count": 6,
      "type": "VEC2",
      "max": [
        0.34375,
        1.0
      ],
      "min": [
        0.09375,
        0.75
      ]
    },
    {
      "bufferView": 17,
      "componentType": 5126,
      "count": 6,
      "type": "VEC3",
      "max": [
        0.0625,
        0.0625,
        0.0625
      ],
      "min": [
        0.0,
        0.0,
        0.0625
      ]
    },
    {
      "bufferView": 18,
      "componentType": 5126,
      "count": 6,
      "type": "VEC2",
      "max": [
        0.25,
        0.34375
      ],
      "min": [
        0.0,
        0.09375
      ]
    },
    {
      "bufferView": 19,
      "componentType": 5126,
      "count": 6,
      "type": "VEC2",
      "max": [
        0.34375,
        1.0
      ],
      "min": [
        0.09375,
        0.75
      ]
    },
    {
      "bufferView": 20,
      "componentType": 5126,
      "count": 6,
      "type": "VEC3",
      "max": [
        0.0625,
        0.0625,
        0.0625
      ],
      "min": [
        0.0625,
        0.0,
        0.0
      ]
    },
    {
      "bufferView": 21,
      "componentType": 5126,
      "count": 6,
      "type": "VEC3",
      "max": [
        0.0,
        0.0625,
        0.0625
      ],
      "min": [
        0.0,
        0.0,
        0.0
      ]
    },
    {
      "bufferView": 22,
      "componentType": 5126,
      "count": 6,
      "type": "VEC3",
      "max": [
        0.0625,
        0.0625,
        0.0625
      ],
      "min": [
        0.0,
        0.0625,
        0.0
      ]
    },
    {
      "bufferView": 23,
      "componentType": 5126,
      "count": 6,
      "type": "VEC2",
      "max": [
        0.25,
        0.34375
      ],
      "min": [
        0.0,
        0.09375
      ]
    },
    {
      "bufferView": 24,
      "componentType": 5126,
      "count": 6,
      "type": "VEC2",
      "max": [
        0.34375,
        1.0
      ],
      "min": [
        0.09375,
        0.75
      ]
    },
    {
      "bufferView": 25,
      "componentType": 5126,
      "count": 6,
      "type": "VEC3",
      "max": [
        0.0625,
        0.0,
        0.0625
      ],
      "min": [
        0.0,
        0.0,
        0.0
      ]
    }
  ],
  "asset": {
    "generator": "CubiCreator glTF v2 Exporter",
    "version": "2.0"
  },
  "buffers": [
    {
      "uri": "pneumatic_restriction_tube.bin",
      "byteLength": 5040
    }
  ],
  "bufferViews": [
    {
      "buffer": 0,
      "byteLength": 360,
      "target": 34962
    },
    {
      "buffer": 0,
      "byteOffset": 360,
      "byteLength": 240,
      "target": 34962
    },
    {
      "buffer": 0,
      "byteOffset": 600,
      "byteLength": 360,
      "target": 34962
    },
    {
      "buffer": 0,
      "byteOffset": 960,
      "byteLength": 240,
      "target": 34962
    },
    {
      "buffer": 0,
      "byteOffset": 1200,
      "byteLength": 360,
      "target": 34962
    },
    {
      "buffer": 0,
      "byteOffset": 1560,
      "byteLength": 240,
      "target": 34962
    },
    {
      "buffer": 0,
      "byteOffset": 1800,
      "byteLength": 360,
      "target": 34962
    },
    {
      "buffer": 0,
      "byteOffset": 2160,
      "byteLength": 240,
      "target": 34962
    },
    {
      "buffer": 0,
      "byteOffset": 2400,
      "byteLength": 360,
      "target": 34962
    },
    {
      "buffer": 0,
      "byteOffset": 2760,
      "byteLength": 240,
      "target": 34962
    },
    {
      "buffer": 0,
      "byteOffset": 3000,
      "byteLength": 360,
      "target": 34962
    },
    {
      "buffer": 0,
      "byteOffset": 3360,
      "byteLength": 240,
      "target": 34962
    },
    {
      "buffer": 0,
      "byteOffset": 3600,
      "byteLength": 432,
      "target": 34962
    },
    {
      "buffer": 0,
      "byteOffset": 4032,
      "byteLength": 288,
      "target": 34962
    },
    {
      "buffer": 0,
      "byteOffset": 4320,
      "byteLength": 72,
      "target": 34962
    },
    {
      "buffer": 0,
      "byteOffset": 4392,
      "byteLength": 48,
      "target": 34962
    },
    {
      "buffer": 0,
      "byteOffset": 4440,
      "byteLength": 48,
      "target": 34962
    },
    {
      "buffer": 0,
      "byteOffset": 4488,
      "byteLength": 72,
      "target": 34962
    },
    {
      "buffer": 0,
      "byteOffset": 4560,
      "byteLength": 48,
      "target": 34962
    },
    {
      "buffer": 0,
      "byteOffset": 4608,
      "byteLength": 48,
      "target": 34962
    },
    {
      "buffer": 0,
      "byteOffset": 4656,
      "byteLength": 72,
      "target": 34962
    },
    {
      "buffer": 0,
      "byteOffset": 4728,
      "byteLength": 72,
      "target": 34962
    },
    {
      "buffer": 0,
      "byteOffset": 4800,
      "byteLength": 72,
      "target": 34962
    },
    {
      "buffer": 0,
      "byteOffset": 4872,
      "byteLength": 48,
      "target": 34962
    },
    {
      "buffer": 0,
      "byteOffset": 4920,
      "byteLength": 48,
      "target": 34962
    },
    {
      "buffer": 0,
      "byteOffset": 4968,
      "byteLength": 72,
      "target": 34962
    }
  ],
  "images": [
    {
      "uri": "magneticraft:blocks/machines/pneumatic_tube"
    }
  ],
  "materials": [
    {
      "pbrMetallicRoughness": {
        "baseColorFactor": [
          1.0,
          1.0,
          1.0,
          1.0
        ],
        "baseColorTexture": {
          "index": 0,
          "texCoord": 0
        },
        "metallicFactor": 1.0,
        "roughnessFactor": 1.0
      },
      "alphaMode": "MASK",
      "alphaCutoff": 0.5,
      "doubleSided": false
    }
  ],
  "meshes": [
    {
      "primitives": [
        {
          "attributes": {
            "POSITION": 0,
            "TEXCOORD_0": 1
          },
          "material": 0,
          "mode": 4
        }
      ]
    },
    {
      "primitives": [
        {
          "attributes": {
            "POSITION": 2,
            "TEXCOORD_0": 3
          },
          "material": 0,
          "mode": 4
        }
      ]
    },
    {
      "primitives": [
        {
          "attributes": {
            "POSITION": 4,
            "TEXCOORD_0": 5
          },
          "material": 0,
          "mode": 4
        }
      ]
    },
    {
      "primitives": [
        {
          "attributes": {
            "POSITION": 6,
            "TEXCOORD_0": 7
          },
          "material": 0,
          "mode": 4
        }
      ]
    },
    {
      "primitives": [
        {
          "attributes": {
            "POSITION": 8,
            "TEXCOORD_0": 9
          },
          "material": 0,
          "mode": 4
        }
      ]
    },
    {
      "primitives": [
        {
          "attributes": {
            "POSITION": 10,
            "TEXCOORD_0": 11
          },
          "material": 0,
          "mode": 4
        }
      ]
    },
    {
      "primitives": [
        {
          "attributes": {
            "POSITION": 12,
            "TEXCOORD_0": 13
          },
          "material": 0,
          "mode": 4
        }
      ]
    },
    {
      "primitives": [
        {
          "attributes": {
            "POSITION": 14,
            "TEXCOORD_0": 15
          },
          "material": 0,
          "mode": 4
        }
      ]
    },
    {
      "primitives": [
        {
          "attributes": {
            "POSITION": 14,
            "TEXCOORD_0": 16
          },
          "material": 0,
          "mode": 4
        }
      ]
    },
    {
      "primitives": [
        {
          "attributes": {
            "POSITION": 17,
            "TEXCOORD_0": 18
          },
          "material": 0,
          "mode": 4
        }
      ]
    },
    {
      "primitives": [
        {
          "attributes": {
            "POSITION": 17,
            "TEXCOORD_0": 19
          },
          "material": 0,
          "mode": 4
        }
      ]
    },
    {
      "primitives": [
        {
          "attributes": {
            "POSITION": 20,
            "TEXCOORD_0": 15
          },
          "material": 0,
          "mode": 4
        }
      ]
    },
    {
      "primitives": [
        {
          "attributes": {
            "POSITION": 20,
            "TEXCOORD_0": 16
          },
          "material": 0,
          "mode": 4
        }
      ]
    },
    {
      "primitives": [
        {
          "attributes": {
            "POSITION": 21,
            "TEXCOORD_0": 18
          },
          "material": 0,
          "mode": 4
        }
      ]
    },
    {
      "primitives": [
        {
          "attributes": {
            "POSITION": 21,
            "TEXCOORD_0": 19
          },
          "material": 0,
          "mode": 4
        }
      ]
    },
    {
      "primitives": [
        {
          "attributes": {
            "POSITION": 22,
            "TEXCOORD_0": 23
          },
          "material": 0,
          "mode": 4
        }
      ]
    },
    {
      "primitives": [
        {
          "attributes": {
            "POSITION": 22,
            "TEXCOORD_0": 24
          },
          "material": 0,
          "mode": 4
        }
      ]
    },
    {
      "primitives": [
        {
          "attributes": {
            "POSITION": 25,
            "TEXCOORD_0": 18
          },
          "material": 0,
          "mode": 4
        }
      ]
    },
    {
      "primitives": [
        {
          "attributes": {
            "POSITION": 25,
            "TEXCOORD_0": 19
          },
          "material": 0,
          "mode": 4
        }
      ]
    }
  ],
  "nodes": [
    {
      "mesh": 0,
      "rotation": [
        0.0,
        0.0,
        0.0,
        1.0
      ],
      "scale": [
        8.0,
        8.0,
        4.0
      ],
      "translation": [
        0.25,
        0.25,
        0.75
      ],
      "name": "south"
    },
    {
      "mesh": 1,
      "rotation": [
        0.0,
        0.0,
        0.0,
        1.0
      ],
      "scale": [
        8.0,
        8.0,
        4.0
      ],
      "translation": [
        0.25,
        0.25,
        0.0
      ],
      "name": "north"
    },
    {
      "mesh": 2,
      "rotation": [
        0.0,
        0.0,
        0.0,
        1.0
      ],
      "scale": [
        8.0,
        4.0,
        8.0
      ],
      "translation": [
        0.25,
        0.0,
        0.25
      ],
      "name": "down"
    },
    {
      "mesh": 3,
      "rotation": [
        0.0,
        0.0,
        0.0,
        1.0
      ],
      "scale": [
        8.0,
        4.0,
        8.0
      ],
      "translation": [
        0.25,
        0.75,
        0.25
      ],
      "name": "up"
    },
    {
      "mesh": 4,
      "rotation": [
        0.0,
        0.0,
        0.0,
        1.0
      ],
      "scale": [
        4.0,
        8.0,
        8.0
      ],
      "translation": [
        0.75,
        0.25,
        0.25
      ],
      "name": "east"
    },
    {
      "mesh": 5,
      "rotation": [
        0.0,
        0.0,
        0.0,
        1.0
      ],
      "scale": [
        4.0,
        8.0,
        8.0
      ],
      "translation": [
        0.0,
        0.25,
        0.25
      ],
      "name": "west"
    },
    {
      "mesh": 6,
      "rotation": [
        0.0,
        0.0,
        0.0,
        1.0
      ],
      "scale": [
        8.0,
        8.0,
        8.0
      ],
      "translation": [
        0.25,
        0.25,
        0.25
      ],
      "name": "center_full"
    },
    {
      "mesh": 7,
      "rotation": [
        0.0,
        0.0,
        0.0,
        1.0
      ],
      "scale": [
        8.0,
        8.0,
        8.0
      ],
      "translation": [
        0.25,
        0.25,
        0.25
      ],
      "name": "center_north_v"
    },
    {
      "mesh": 8,
      "rotation": [
        0.0,
        0.0,
        0.0,
        1.0
      ],
      "scale": [
        8.0,
        8.0,
        8.0
      ],
      "translation": [
        0.25,
        0.25,
        0.25
      ],
      "name": "center_north_h"
    },
    {
      "mesh": 9,
      "rotation": [
        0.0,
        0.0,
        0.0,
        1.0
      ],
      "scale": [
        8.0,
        8.0,
        8.0
      ],
      "translation": [
        0.25,
        0.25,
        0.25
      ],
      "name": "center_south_v"
    },
    {
      "mesh": 10,
      "rotation": [
        0.0,
        0.0,
        0.0,
        1.0
      ],
      "scale": [
        8.0,
        8.0,
        8.0
      ],
      "translation": [
        0.25,
        0.25,
        0.25
      ],
      "name": "center_south_h"
    },
    {
      "mesh": 11,
      "rotation": [
        0.0,
        0.0,
        0.0,
        1.0
      ],
      "scale": [
        8.0,
        8.0,
        8.0
      ],
      "translation": [
        0.25,
        0.25,
        0.25
      ],
      "name": "center_east_v"
    },
    {
      "mesh": 12,
      "rotation": [
        0.0,
        0.0,
        0.0,
        1.0
      ],
      "scale": [
        8.0,
        8.0,
        8.0
      ],
      "translation": [
        0.25,
        0.25,
        0.25
      ],
      "name": "center_east_h"
    },
    {
      "mesh": 13,
      "rotation": [
        0.0,
        0.0,
        0.0,
        1.0
      ],
      "scale": [
        8.0,
        8.0,
        8.0
      ],
      "translation": [
        0.25,
        0.25,
        0.25
      ],
      "name": "center_west_v"
    },
    {
      "mesh": 14,
      "rotation": [
        0.0,
        0.0,
        0.0,
        1.0
      ],
      "scale": [
        8.0,
        8.0,
        8.0
      ],
      "translation": [
        0.25,
        0.25,
        0.25
      ],
      "name": "center_west_h"
    },
    {
      "mesh": 15,
      "rotation": [
        0.0,
        0.0,
        0.0,
        1.0
      ],
      "scale": [
        8.0,
        8.0,
        8.0
      ],
      "translation": [
        0.25,
        0.25,
        0.25
      ],
      "name": "center_up_h"
    },
    {
      "mesh": 16,
      "rotation": [
        0.0,
        0.0,
        0.0,
        1.0
      ],
      "scale": [
        8.0,
        8.0,
        8.0
      ],
      "translation": [
        0.25,
        0.25,
        0.25
      ],
      "name": "center_up_v"
    },
    {
      "mesh": 17,
      "rotation": [
        0.0,
        0.0,
        0.0,
        1.0
      ],
      "scale": [
        8.0,
        8.0,
        8.0
      ],
      "translation": [
        0.25,
        0.25,
        0.25
      ],
      "name": "center_down_h"
    },
    {
      "mesh": 18,
      "rotation": [
        0.0,
        0.0,
        0.0,
        1.0
      ],
      "scale": [
        8.0,
        8.0,
        8.0
      ],
      "translation": [
        0.25,
        0.25,
        0.25
      ],
      "name": "center_down_v"
    },
    {
      "children": [
        0,
        1,
        2,
        3,
        4,
        5,
        6,
        7,
        8,
        9,
        10,
        11,
        12,
        13,
        14,
        15,
        16,
        17,
        18
      ],
      "name": "root"
    }
  ],
  "samplers": [
    {
      "magFilter": 9728,
      "minFilter": 9728,
      "wrapS": 10497,
      "wrapT": 10497,
      "name": "pixelated"
    }
  ],
  "scene": 0,
  "scenes": [
    {
      "nodes": [
        19
      ]
    }
  ],
  "textures": [
    {
      "sampler": 0,
      "source": 0
    }
  ]
}