{
  "accessors": [
    {
      "bufferView": 0,
      "componentType": 5126,
      "count": 36,
      "type": "VEC3",
      "max": [
        0.0625,
        0.0625,
        0.0625
      ],
      "min": [
        0.0,
        0.0,
        0.0
      ]
    },
    {
      "bufferView": 1,
      "componentType": 5126,
      "count": 36,
      "type": "VEC2",
      "max": [
        1.0,
        0.71875
      ],
      "min": [
        0.375,
        0.03125
      ]
    },
    {
      "bufferView": 2,
      "componentType": 5126,
      "count": 36,
      "type": "VEC2",
      "max": [
        1.0,
        0.71875
      ],
      "min": [
        0.375,
        0.03125
      ]
    },
    {
      "bufferView": 3,
      "componentType": 5126,
      "count": 6,
      "type": "VEC3",
      "max": [
        0.0625,
        0.0625,
        0.0625
      ],
      "min": [
        0.0625,
        0.0,
        0.0
      ]
    },
    {
      "bufferView": 4,
      "componentType": 5126,
      "count": 6,
      "type": "VEC2",
      "max": [
        0.25,
        0.71875
      ],
      "min": [
        0.0,
        0.46875
      ]
    },
    {
      "bufferView": 5,
      "componentType": 5126,
      "count": 6,
      "type": "VEC3",
      "max": [
        0.0,
        0.0625,
        0.0625
      ],
      "min": [
        0.0,
        0.0,
        0.0
      ]
    },
    {
      "bufferView": 6,
      "componentType": 5126,
      "count": 6,
      "type": "VEC2",
      "max": [
        0.25,
        0.71875
      ],
      "min": [
        0.0,
        0.46875
      ]
    },
    {
      "bufferView": 7,
      "componentType": 5126,
      "count": 6,
      "type": "VEC3",
      "max": [
        0.0625,
        0.0625,
        0.0625
      ],
      "min": [
        0.0,
        0.0625,
        0.0
      ]
    },
    {
      "bufferView": 8,
      "componentType": 5126,
      "count": 6,
      "type": "VEC2",
      "max": [
        1.0,
        0.90625
      ],
      "min": [
        0.75,
        0.65625
      ]
    },
    {
      "bufferView": 9,
      "componentType": 5126,
      "count": 6,
      "type": "VEC3",
      "max": [
        0.0625,
        0.0,
        0.0625
      ],
      "min": [
        0.0,
        0.0,
        0.0
      ]
    },
    {
      "bufferView": 10,
      "componentType": 5126,
      "count": 6,
      "type": "VEC2",
      "max": [
        1.0,
        0.90625
      ],
      "min": [
        0.75,
        0.65625
      ]
    }
  ],
  "asset": {
    "generator": "CubiCreator glTF v2 Exporter",
    "version": "2.0"
  },
  "buffers": [
    {
      "uri": "pneumatic_tube_inv.bin",
      "byteLength": 1488
    }
  ],
  "bufferViews": [
    {
      "buffer": 0,
      "byteLength": 432,
      "target": 34962
    },
    {
      "buffer": 0,
      "byteOffset": 432,
      "byteLength": 288,
      "target": 34962
    },
    {
      "buffer": 0,
      "byteOffset": 720,
      "byteLength": 288,
      "target": 34962
    },
    {
      "buffer": 0,
      "byteOffset": 1008,
      "byteLength": 72,
      "target": 34962
    },
    {
      "buffer": 0,
      "byteOffset": 1080,
      "byteLength": 48,
      "target": 34962
    },
    {
      "buffer": 0,
      "byteOffset": 1128,
      "byteLength": 72,
      "target": 34962
    },
    {
      "buffer": 0,
      "byteOffset": 1200,
      "byteLength": 48,
      "target": 34962
    },
    {
      "buffer": 0,
      "byteOffset": 1248,
      "byteLength": 72,
      "target": 34962
    },
    {
      "buffer": 0,
      "byteOffset": 1320,
      "byteLength": 48,
      "target": 34962
    },
    {
      "buffer": 0,
      "byteOffset": 1368,
      "byteLength": 72,
      "target": 34962
    },
    {
      "buffer": 0,
      "byteOffset": 1440,
      "byteLength": 48,
      "target": 34962
    }
  ],
  "images": [
    {
      "uri": "magneticraft:blocks/machines/pneumatic_tube"
    }
  ],
  "materials": [
    {
      "pbrMetallicRoughness": {
        "baseColorFactor": [
          1.0,
          1.0,
          1.0,
          1.0
        ],
        "baseColorTexture": {
          "index": 0,
          "texCoord": 0
        },
        "metallicFactor": 1.0,
        "roughnessFactor": 1.0
      },
      "alphaMode": "MASK",
      "alphaCutoff": 0.5,
      "doubleSided": false
    }
  ],
  "meshes": [
    {
      "primitives": [
        {
          "attributes": {
            "POSITION": 0,
            "TEXCOORD_0": 1
          },
          "material": 0,
          "mode": 4
        }
      ]
    },
    {
      "primitives": [
        {
          "attributes": {
            "POSITION": 0,
            "TEXCOORD_0": 2
          },
          "material": 0,
          "mode": 4
        }
      ]
    },
    {
      "primitives": [
        {
          "attributes": {
            "POSITION": 3,
            "TEXCOORD_0": 4
          },
          "material": 0,
          "mode": 4
        }
      ]
    },
    {
      "primitives": [
        {
          "attributes": {
            "POSITION": 5,
            "TEXCOORD_0": 6
          },
          "material": 0,
          "mode": 4
        }
      ]
    },
    {
      "primitives": [
        {
          "attributes": {
            "POSITION": 7,
            "TEXCOORD_0": 8
          },
          "material": 0,
          "mode": 4
        }
      ]
    },
    {
      "primitives": [
        {
          "attributes": {
            "POSITION": 9,
            "TEXCOORD_0": 10
          },
          "material": 0,
          "mode": 4
        }
      ]
    }
  ],
  "nodes": [
    {
      "mesh": 0,
      "rotation": [
        0.0,
        0.0,
        0.0,
        1.0
      ],
      "scale": [
        8.0,
        8.0,
        4.0
      ],
      "translation": [
        0.25,
        0.25,
        0.75
      ],
      "name": "south"
    },
    {
      "mesh": 1,
      "rotation": [
        0.0,
        0.0,
        0.0,
        1.0
      ],
      "scale": [
        8.0,
        8.0,
        4.0
      ],
      "translation": [
        0.25,
        0.25,
        0.0
      ],
      "name": "north"
    },
    {
      "mesh": 2,
      "rotation": [
        0.0,
        0.0,
        0.0,
        1.0
      ],
      "scale": [
        8.0,
        8.0,
        8.0
      ],
      "translation": [
        0.25,
        0.25,
        0.25
      ],
      "name": "center_east_h"
    },
    {
      "mesh": 3,
      "rotation": [
        0.0,
        0.0,
        0.0,
        1.0
      ],
      "scale": [
        8.0,
        8.0,
        8.0
      ],
      "translation": [
        0.25,
        0.25,
        0.25
      ],
      "name": "center_west_h"
    },
    {
      "mesh": 4,
      "rotation": [
        0.0,
        0.0,
        0.0,
        1.0
      ],
      "scale": [
        8.0,
        8.0,
        8.0
      ],
      "translation": [
        0.25,
        0.25,
        0.25
      ],
      "name": "center_up_h"
    },
    {
      "mesh": 5,
      "rotation": [
        0.0,
        0.0,
        0.0,
        1.0
      ],
      "scale": [
        8.0,
        8.0,
        8.0
      ],
      "translation": [
        0.25,
        0.25,
        0.25
      ],
      "name": "center_down_h"
    },
    {
      "children": [
        0,
        1,
        2,
        3,
        4,
        5
      ],
      "name": "root"
    }
  ],
  "samplers": [
    {
      "magFilter": 9728,
      "minFilter": 9728,
      "wrapS": 10497,
      "wrapT": 10497,
      "name": "pixelated"
    }
  ],
  "scene": 0,
  "scenes": [
    {
      "nodes": [
        6
      ]
    }
  ],
  "textures": [
    {
      "sampler": 0,
      "source": 0
    }
  ]
}