# Blender v2.76 (sub 0) OBJ File: ''
# www.blender.org
mtllib crushing_table.mtl
o crushing_table
v 0.968750 -0.000000 0.031250
v 0.718750 -0.000000 0.031250
v 0.718750 0.125000 0.031250
v 0.968750 0.125000 0.031250
v 0.718750 -0.000000 0.281250
v 0.968750 -0.000000 0.281250
v 0.968750 0.125000 0.281250
v 0.718750 0.125000 0.281250
v 1.000000 0.562500 0.000000
v 0.000000 0.562500 0.000000
v 0.000000 0.875000 0.000000
v 1.000000 0.875000 0.000000
v 0.000000 0.562500 1.000000
v 1.000000 0.562500 1.000000
v 1.000000 0.875000 1.000000
v 0.000000 0.875000 1.000000
v 0.031250 0.125000 0.968750
v 0.968750 0.125000 0.968750
v 0.968750 0.562500 0.968750
v 0.031250 0.562500 0.968750
v 0.968750 0.562500 0.031250
v 0.031250 0.562500 0.031250
v 0.031250 0.125000 0.031250
v 0.281250 -0.000000 0.718750
v 0.031250 -0.000000 0.718750
v 0.031250 0.125000 0.718750
v 0.281250 0.125000 0.718750
v 0.281250 -0.000000 0.968750
v 0.031250 -0.000000 0.968750
v 0.281250 0.125000 0.968750
v 0.031250 -0.000000 0.281250
v 0.281250 -0.000000 0.281250
v 0.281250 0.125000 0.281250
v 0.031250 0.125000 0.281250
v 0.031250 -0.000000 0.031250
v 0.281250 -0.000000 0.031250
v 0.281250 0.125000 0.031250
v 0.968750 -0.000000 0.718750
v 0.718750 -0.000000 0.718750
v 0.718750 0.125000 0.718750
v 0.968750 0.125000 0.718750
v 0.968750 -0.000000 0.968750
v 0.718750 -0.000000 0.968750
v 0.718750 0.125000 0.968750
vt 0.062500 0.203125
vt 0.125000 0.203125
vt 0.125000 0.234375
vt 0.062500 0.234375
vt 0.187500 0.203125
vt 0.250000 0.203125
vt 0.250000 0.234375
vt 0.187500 0.234375
vt 0.187500 0.296875
vt 0.125000 0.296875
vt 0.000000 0.203125
vt 0.000000 0.234375
vt 0.250000 0.671875
vt 0.500000 0.671875
vt 0.500000 0.750000
vt 0.250000 0.750000
vt 0.750000 0.671875
vt 1.000000 0.671875
vt 1.000000 0.750000
vt 0.750000 0.750000
vt 0.500000 1.000000
vt 0.250000 1.000000
vt 0.750000 1.000000
vt 0.000000 0.671875
vt 0.000000 0.750000
vt 0.703125 0.312500
vt 0.937500 0.312500
vt 0.937500 0.421875
vt 0.703125 0.421875
vt 0.234375 0.421875
vt 0.468750 0.421875
vt 0.468750 0.656250
vt 0.234375 0.656250
vt 0.468750 0.312500
vt 0.234375 0.312500
vt 0.703125 0.656250
vt 0.000000 0.312500
vt 0.000000 0.421875
vn 0.000000 0.000000 -1.000000
vn 0.000000 0.000000 1.000000
vn 0.000000 -1.000000 -0.000000
vn 1.000000 0.000000 0.000000
vn -1.000000 0.000000 0.000000
vn 0.000000 1.000000 0.000000
vn -0.951700 -0.240000 -0.191700
vn -0.191700 -0.240000 0.951700
vn 0.191700 -0.240000 -0.951700
vn 0.951700 -0.240000 0.191700
usemtl texture
s 1
f 1/1/1 2/2/1 3/3/1 4/4/1
f 5/5/2 6/6/2 7/7/2 8/8/2
f 6/3/3 5/8/3 2/9/3 1/10/3
f 6/11/4 1/1/4 4/4/4 7/12/4
f 2/2/5 5/5/5 8/8/5 3/3/5
f 9/13/1 10/14/1 11/15/1 12/16/1
f 13/17/2 14/18/2 15/19/2 16/20/2
f 12/16/6 11/15/6 16/21/6 15/22/6
f 14/15/3 13/20/3 10/23/3 9/21/3
f 14/24/4 9/13/4 12/16/4 15/25/4
f 10/14/5 13/17/5 16/20/5 11/15/5
f 17/26/7 18/27/8 19/28/2 20/29/2
f 21/30/6 22/31/6 20/32/6 19/33/6
f 23/34/9 17/26/7 20/29/5 22/31/5
f 24/1/1 25/2/1 26/3/1 27/4/1
f 28/3/3 29/8/3 25/9/3 24/10/3
f 28/11/4 24/1/4 27/4/4 30/12/4
f 31/5/2 32/6/2 33/7/2 34/8/2
f 32/3/3 31/8/3 35/9/3 36/10/3
f 32/11/4 36/1/4 37/4/4 33/12/4
f 38/1/1 39/2/1 40/3/1 41/4/1
f 42/3/3 43/8/3 39/9/3 38/10/3
f 39/2/5 43/5/5 44/8/5 40/3/5
f 4/35/10 23/34/9 22/31/1 21/30/1
f 18/31/8 17/29/7 23/36/9 4/32/10
f 18/37/8 4/35/10 21/30/4 19/38/4
f 29/5/2 28/6/2 30/7/2 17/8/2
f 25/2/5 29/5/5 17/8/5 26/3/5
f 36/1/1 35/2/1 23/3/1 37/4/1
f 35/2/5 31/5/5 34/8/5 23/3/5
f 43/5/2 42/6/2 18/7/2 44/8/2
f 42/11/4 38/1/4 41/4/4 18/12/4
